<mxfile host="app.diagrams.net" modified="2021-09-30T09:38:58.433Z" agent="5.0 (X11; Linux x86_64) AppleWebKit/537.36 (KHTML, like Gecko) Chrome/94.0.4606.61 Safari/537.36" etag="F4xFZQiQmh7ZJY49FQmy" version="15.3.8" type="github">
  <diagram name="Page-1" id="e7e014a7-5840-1c2e-5031-d8a46d1fe8dd">
    <mxGraphModel dx="1355" dy="773" grid="1" gridSize="10" guides="1" tooltips="1" connect="1" arrows="1" fold="1" page="1" pageScale="1" pageWidth="1169" pageHeight="826" background="none" math="0" shadow="0">
      <root>
        <mxCell id="0" />
        <mxCell id="1" parent="0" />
        <mxCell id="2" value="DBC模块结构" style="swimlane;whiteSpace=wrap" parent="1" vertex="1">
          <mxGeometry x="40" y="40" width="1080" height="760" as="geometry" />
        </mxCell>
        <mxCell id="5" value="" style="ellipse;shape=startState;fillColor=#000000;strokeColor=#ff0000;" parent="2" vertex="1">
          <mxGeometry x="65" y="50" width="30" height="30" as="geometry" />
        </mxCell>
        <mxCell id="6" value="" style="edgeStyle=elbowEdgeStyle;elbow=horizontal;verticalAlign=bottom;endArrow=open;endSize=8;strokeColor=#FF0000;endFill=1;rounded=0;entryX=0.5;entryY=0;entryDx=0;entryDy=0;" parent="2" source="5" target="j3g2-RbLPYTZvtvbNVoc-41" edge="1">
          <mxGeometry x="65" y="50" as="geometry">
            <mxPoint x="80.5" y="120" as="targetPoint" />
          </mxGeometry>
        </mxCell>
        <mxCell id="9" value="" style="endArrow=open;strokeColor=#FF0000;endFill=1;rounded=0;exitX=0.5;exitY=1;exitDx=0;exitDy=0;entryX=0.5;entryY=0;entryDx=0;entryDy=0;" parent="2" source="j3g2-RbLPYTZvtvbNVoc-41" target="j3g2-RbLPYTZvtvbNVoc-42" edge="1">
          <mxGeometry relative="1" as="geometry">
            <mxPoint x="80" y="170" as="sourcePoint" />
            <mxPoint x="180.5" y="142" as="targetPoint" />
          </mxGeometry>
        </mxCell>
        <mxCell id="11" value="" style="endArrow=open;strokeColor=#FF0000;endFill=1;rounded=0;entryX=0.5;entryY=0;entryDx=0;entryDy=0;exitX=0.5;exitY=1;exitDx=0;exitDy=0;" parent="2" source="j3g2-RbLPYTZvtvbNVoc-42" target="j3g2-RbLPYTZvtvbNVoc-43" edge="1">
          <mxGeometry relative="1" as="geometry">
            <mxPoint x="160.5" y="322" as="sourcePoint" />
            <mxPoint x="80" y="335" as="targetPoint" />
          </mxGeometry>
        </mxCell>
        <mxCell id="j3g2-RbLPYTZvtvbNVoc-41" value="初始化加密服务" style="rhombus;whiteSpace=wrap;html=1;" parent="2" vertex="1">
          <mxGeometry x="40" y="102" width="80" height="80" as="geometry" />
        </mxCell>
        <mxCell id="j3g2-RbLPYTZvtvbNVoc-42" value="处理命令行" style="rhombus;whiteSpace=wrap;html=1;" parent="2" vertex="1">
          <mxGeometry x="40" y="212" width="80" height="80" as="geometry" />
        </mxCell>
        <mxCell id="j3g2-RbLPYTZvtvbNVoc-46" style="edgeStyle=orthogonalEdgeStyle;rounded=0;orthogonalLoop=1;jettySize=auto;html=1;exitX=0.5;exitY=1;exitDx=0;exitDy=0;entryX=0.5;entryY=0;entryDx=0;entryDy=0;strokeColor=#FF0000;" parent="2" source="j3g2-RbLPYTZvtvbNVoc-43" target="j3g2-RbLPYTZvtvbNVoc-44" edge="1">
          <mxGeometry relative="1" as="geometry" />
        </mxCell>
        <mxCell id="j3g2-RbLPYTZvtvbNVoc-43" value="env_manager" style="rhombus;whiteSpace=wrap;html=1;" parent="2" vertex="1">
          <mxGeometry x="40" y="332" width="80" height="80" as="geometry" />
        </mxCell>
        <mxCell id="j3g2-RbLPYTZvtvbNVoc-44" value="conf_manager" style="rhombus;whiteSpace=wrap;html=1;" parent="2" vertex="1">
          <mxGeometry x="40.5" y="430" width="80" height="80" as="geometry" />
        </mxCell>
        <mxCell id="j3g2-RbLPYTZvtvbNVoc-63" style="edgeStyle=orthogonalEdgeStyle;rounded=0;orthogonalLoop=1;jettySize=auto;html=1;exitX=0.5;exitY=1;exitDx=0;exitDy=0;entryX=0.5;entryY=0;entryDx=0;entryDy=0;strokeColor=#FF0000;" parent="2" source="j3g2-RbLPYTZvtvbNVoc-48" target="j3g2-RbLPYTZvtvbNVoc-62" edge="1">
          <mxGeometry relative="1" as="geometry" />
        </mxCell>
        <mxCell id="j3g2-RbLPYTZvtvbNVoc-48" value="SystemInfo" style="rhombus;whiteSpace=wrap;html=1;" parent="2" vertex="1">
          <mxGeometry x="40.5" y="542" width="80" height="80" as="geometry" />
        </mxCell>
        <mxCell id="j3g2-RbLPYTZvtvbNVoc-50" value="" style="endArrow=open;strokeColor=#FF0000;endFill=1;rounded=0;entryX=0.5;entryY=0;entryDx=0;entryDy=0;exitX=0.5;exitY=1;exitDx=0;exitDy=0;" parent="2" source="j3g2-RbLPYTZvtvbNVoc-44" target="j3g2-RbLPYTZvtvbNVoc-48" edge="1">
          <mxGeometry relative="1" as="geometry">
            <mxPoint x="90" y="302" as="sourcePoint" />
            <mxPoint x="90" y="342" as="targetPoint" />
          </mxGeometry>
        </mxCell>
        <mxCell id="j3g2-RbLPYTZvtvbNVoc-51" value="openssl和secp256k1的加密服务" style="rounded=0;whiteSpace=wrap;html=1;" parent="2" vertex="1">
          <mxGeometry x="175" y="112" width="120" height="60" as="geometry" />
        </mxCell>
        <mxCell id="20" value="" style="endArrow=open;strokeColor=#FF0000;endFill=1;rounded=0;exitX=1;exitY=0.5;exitDx=0;exitDy=0;entryX=0;entryY=0.5;entryDx=0;entryDy=0;" parent="2" source="j3g2-RbLPYTZvtvbNVoc-41" target="j3g2-RbLPYTZvtvbNVoc-51" edge="1">
          <mxGeometry relative="1" as="geometry">
            <mxPoint x="259.5" y="448" as="sourcePoint" />
            <mxPoint x="389.5" y="448" as="targetPoint" />
          </mxGeometry>
        </mxCell>
        <mxCell id="j3g2-RbLPYTZvtvbNVoc-52" value="-help -version -daemon等命令" style="rounded=0;whiteSpace=wrap;html=1;" parent="2" vertex="1">
          <mxGeometry x="175" y="222" width="120" height="60" as="geometry" />
        </mxCell>
        <mxCell id="j3g2-RbLPYTZvtvbNVoc-53" value="" style="endArrow=open;strokeColor=#FF0000;endFill=1;rounded=0;exitX=1;exitY=0.5;exitDx=0;exitDy=0;entryX=0;entryY=0.5;entryDx=0;entryDy=0;" parent="2" source="j3g2-RbLPYTZvtvbNVoc-42" target="j3g2-RbLPYTZvtvbNVoc-52" edge="1">
          <mxGeometry relative="1" as="geometry">
            <mxPoint x="130" y="152" as="sourcePoint" />
            <mxPoint x="295" y="152" as="targetPoint" />
          </mxGeometry>
        </mxCell>
        <mxCell id="j3g2-RbLPYTZvtvbNVoc-54" value="locale区域编码、大小端、常用路径等环境" style="rounded=0;whiteSpace=wrap;html=1;" parent="2" vertex="1">
          <mxGeometry x="175" y="342" width="120" height="60" as="geometry" />
        </mxCell>
        <mxCell id="j3g2-RbLPYTZvtvbNVoc-55" value="" style="endArrow=open;strokeColor=#FF0000;endFill=1;rounded=0;exitX=1;exitY=0.5;exitDx=0;exitDy=0;entryX=0;entryY=0.5;entryDx=0;entryDy=0;" parent="2" source="j3g2-RbLPYTZvtvbNVoc-43" target="j3g2-RbLPYTZvtvbNVoc-54" edge="1">
          <mxGeometry relative="1" as="geometry">
            <mxPoint x="130" y="262" as="sourcePoint" />
            <mxPoint x="295" y="262" as="targetPoint" />
          </mxGeometry>
        </mxCell>
        <mxCell id="j3g2-RbLPYTZvtvbNVoc-56" value="IP、Port、node_ID、key等配置" style="rounded=0;whiteSpace=wrap;html=1;" parent="2" vertex="1">
          <mxGeometry x="175" y="440" width="120" height="60" as="geometry" />
        </mxCell>
        <mxCell id="j3g2-RbLPYTZvtvbNVoc-57" value="" style="endArrow=open;strokeColor=#FF0000;endFill=1;rounded=0;exitX=1;exitY=0.5;exitDx=0;exitDy=0;entryX=0;entryY=0.5;entryDx=0;entryDy=0;" parent="2" source="j3g2-RbLPYTZvtvbNVoc-44" target="j3g2-RbLPYTZvtvbNVoc-56" edge="1">
          <mxGeometry relative="1" as="geometry">
            <mxPoint x="130" y="382" as="sourcePoint" />
            <mxPoint x="295" y="382" as="targetPoint" />
          </mxGeometry>
        </mxCell>
        <mxCell id="j3g2-RbLPYTZvtvbNVoc-66" style="edgeStyle=orthogonalEdgeStyle;rounded=0;orthogonalLoop=1;jettySize=auto;html=1;exitX=1;exitY=0.5;exitDx=0;exitDy=0;entryX=0;entryY=0.5;entryDx=0;entryDy=0;strokeColor=#FF0000;" parent="2" source="j3g2-RbLPYTZvtvbNVoc-58" target="j3g2-RbLPYTZvtvbNVoc-60" edge="1">
          <mxGeometry relative="1" as="geometry" />
        </mxCell>
        <mxCell id="j3g2-RbLPYTZvtvbNVoc-58" value="系统版本、内存信息、CPU、GPU、硬盘、公有IP等信息" style="rounded=0;whiteSpace=wrap;html=1;" parent="2" vertex="1">
          <mxGeometry x="175" y="552" width="120" height="60" as="geometry" />
        </mxCell>
        <mxCell id="j3g2-RbLPYTZvtvbNVoc-60" value="开启了一个线程更新CPU使用情况" style="rounded=0;whiteSpace=wrap;html=1;" parent="2" vertex="1">
          <mxGeometry x="335" y="552" width="120" height="60" as="geometry" />
        </mxCell>
        <mxCell id="j3g2-RbLPYTZvtvbNVoc-65" style="edgeStyle=orthogonalEdgeStyle;rounded=0;orthogonalLoop=1;jettySize=auto;html=1;exitX=1;exitY=0.5;exitDx=0;exitDy=0;strokeColor=#FF0000;" parent="2" source="j3g2-RbLPYTZvtvbNVoc-62" target="j3g2-RbLPYTZvtvbNVoc-64" edge="1">
          <mxGeometry relative="1" as="geometry" />
        </mxCell>
        <mxCell id="j3g2-RbLPYTZvtvbNVoc-62" value="timer_matrix" style="rhombus;whiteSpace=wrap;html=1;" parent="2" vertex="1">
          <mxGeometry x="40.5" y="640" width="80" height="80" as="geometry" />
        </mxCell>
        <mxCell id="j3g2-RbLPYTZvtvbNVoc-68" style="edgeStyle=orthogonalEdgeStyle;rounded=0;orthogonalLoop=1;jettySize=auto;html=1;exitX=1;exitY=0.5;exitDx=0;exitDy=0;entryX=0;entryY=0.5;entryDx=0;entryDy=0;strokeColor=#FF0000;" parent="2" source="j3g2-RbLPYTZvtvbNVoc-64" target="j3g2-RbLPYTZvtvbNVoc-67" edge="1">
          <mxGeometry relative="1" as="geometry" />
        </mxCell>
        <mxCell id="j3g2-RbLPYTZvtvbNVoc-64" value="boost::asio::io_service&lt;br&gt;steady定时器&lt;br&gt;100ms时钟周期" style="rounded=0;whiteSpace=wrap;html=1;" parent="2" vertex="1">
          <mxGeometry x="175" y="650" width="120" height="60" as="geometry" />
        </mxCell>
        <mxCell id="j3g2-RbLPYTZvtvbNVoc-67" value="创建了用于io service的线程，每隔100ms通知订阅者检查计时器是否到期" style="rounded=0;whiteSpace=wrap;html=1;" parent="2" vertex="1">
          <mxGeometry x="335" y="650" width="120" height="60" as="geometry" />
        </mxCell>
        <mxCell id="j3g2-RbLPYTZvtvbNVoc-71" style="edgeStyle=orthogonalEdgeStyle;rounded=0;orthogonalLoop=1;jettySize=auto;html=1;exitX=1;exitY=0.5;exitDx=0;exitDy=0;strokeColor=#FF0000;" parent="2" source="j3g2-RbLPYTZvtvbNVoc-69" target="j3g2-RbLPYTZvtvbNVoc-70" edge="1">
          <mxGeometry relative="1" as="geometry" />
        </mxCell>
        <mxCell id="pLDWIjj2GUjcDCVIS8U9-26" style="edgeStyle=orthogonalEdgeStyle;rounded=0;orthogonalLoop=1;jettySize=auto;html=1;exitX=0.5;exitY=1;exitDx=0;exitDy=0;entryX=0.5;entryY=0;entryDx=0;entryDy=0;strokeColor=#FF0000;" parent="2" source="j3g2-RbLPYTZvtvbNVoc-69" target="j3g2-RbLPYTZvtvbNVoc-72" edge="1">
          <mxGeometry relative="1" as="geometry" />
        </mxCell>
        <mxCell id="j3g2-RbLPYTZvtvbNVoc-69" value="node_request" style="rhombus;whiteSpace=wrap;html=1;" parent="2" vertex="1">
          <mxGeometry x="520" y="82" width="80" height="80" as="geometry" />
        </mxCell>
        <mxCell id="j3g2-RbLPYTZvtvbNVoc-75" style="edgeStyle=orthogonalEdgeStyle;rounded=0;orthogonalLoop=1;jettySize=auto;html=1;exitX=1;exitY=0.5;exitDx=0;exitDy=0;entryX=0;entryY=0.5;entryDx=0;entryDy=0;strokeColor=#FF0000;" parent="2" source="j3g2-RbLPYTZvtvbNVoc-70" target="j3g2-RbLPYTZvtvbNVoc-74" edge="1">
          <mxGeometry relative="1" as="geometry" />
        </mxCell>
        <mxCell id="j3g2-RbLPYTZvtvbNVoc-70" value="功能节点的请求处理和任务管理、websocket的发送、接收和处理" style="rounded=0;whiteSpace=wrap;html=1;" parent="2" vertex="1">
          <mxGeometry x="640" y="92" width="120" height="60" as="geometry" />
        </mxCell>
        <mxCell id="j3g2-RbLPYTZvtvbNVoc-86" style="edgeStyle=orthogonalEdgeStyle;rounded=0;orthogonalLoop=1;jettySize=auto;html=1;exitX=1;exitY=0.5;exitDx=0;exitDy=0;strokeColor=#FF0000;" parent="2" source="j3g2-RbLPYTZvtvbNVoc-72" target="j3g2-RbLPYTZvtvbNVoc-76" edge="1">
          <mxGeometry relative="1" as="geometry" />
        </mxCell>
        <mxCell id="pLDWIjj2GUjcDCVIS8U9-27" style="edgeStyle=orthogonalEdgeStyle;rounded=0;orthogonalLoop=1;jettySize=auto;html=1;exitX=0.5;exitY=1;exitDx=0;exitDy=0;strokeColor=#FF0000;" parent="2" source="j3g2-RbLPYTZvtvbNVoc-72" target="j3g2-RbLPYTZvtvbNVoc-73" edge="1">
          <mxGeometry relative="1" as="geometry" />
        </mxCell>
        <mxCell id="j3g2-RbLPYTZvtvbNVoc-72" value="connect_manager" style="rhombus;whiteSpace=wrap;html=1;" parent="2" vertex="1">
          <mxGeometry x="520" y="202" width="80" height="80" as="geometry" />
        </mxCell>
        <mxCell id="j3g2-RbLPYTZvtvbNVoc-88" style="edgeStyle=orthogonalEdgeStyle;rounded=0;orthogonalLoop=1;jettySize=auto;html=1;exitX=1;exitY=0.5;exitDx=0;exitDy=0;entryX=0;entryY=0.5;entryDx=0;entryDy=0;strokeColor=#FF0000;" parent="2" source="j3g2-RbLPYTZvtvbNVoc-73" target="j3g2-RbLPYTZvtvbNVoc-78" edge="1">
          <mxGeometry relative="1" as="geometry" />
        </mxCell>
        <mxCell id="pLDWIjj2GUjcDCVIS8U9-28" style="edgeStyle=orthogonalEdgeStyle;rounded=0;orthogonalLoop=1;jettySize=auto;html=1;exitX=0.5;exitY=1;exitDx=0;exitDy=0;strokeColor=#FF0000;" parent="2" source="j3g2-RbLPYTZvtvbNVoc-73" target="j3g2-RbLPYTZvtvbNVoc-80" edge="1">
          <mxGeometry relative="1" as="geometry" />
        </mxCell>
        <mxCell id="j3g2-RbLPYTZvtvbNVoc-73" value="p2p net服务" style="rhombus;whiteSpace=wrap;html=1;" parent="2" vertex="1">
          <mxGeometry x="520" y="322" width="80" height="80" as="geometry" />
        </mxCell>
        <mxCell id="j3g2-RbLPYTZvtvbNVoc-95" style="edgeStyle=orthogonalEdgeStyle;rounded=0;orthogonalLoop=1;jettySize=auto;html=1;exitX=1;exitY=0.5;exitDx=0;exitDy=0;entryX=0.5;entryY=0;entryDx=0;entryDy=0;strokeColor=#FF0000;" parent="2" source="j3g2-RbLPYTZvtvbNVoc-74" target="j3g2-RbLPYTZvtvbNVoc-94" edge="1">
          <mxGeometry relative="1" as="geometry" />
        </mxCell>
        <mxCell id="j3g2-RbLPYTZvtvbNVoc-74" value="开启了一个线程处理功能节点的请求" style="rounded=0;whiteSpace=wrap;html=1;" parent="2" vertex="1">
          <mxGeometry x="800" y="92" width="120" height="60" as="geometry" />
        </mxCell>
        <mxCell id="j3g2-RbLPYTZvtvbNVoc-87" style="edgeStyle=orthogonalEdgeStyle;rounded=0;orthogonalLoop=1;jettySize=auto;html=1;exitX=1;exitY=0.5;exitDx=0;exitDy=0;strokeColor=#FF0000;" parent="2" source="j3g2-RbLPYTZvtvbNVoc-76" target="j3g2-RbLPYTZvtvbNVoc-77" edge="1">
          <mxGeometry relative="1" as="geometry" />
        </mxCell>
        <mxCell id="j3g2-RbLPYTZvtvbNVoc-76" value="处理网络连接的connect accept listen send recv等操作和 channel的管理" style="rounded=0;whiteSpace=wrap;html=1;" parent="2" vertex="1">
          <mxGeometry x="640" y="212" width="120" height="60" as="geometry" />
        </mxCell>
        <mxCell id="j3g2-RbLPYTZvtvbNVoc-96" style="edgeStyle=orthogonalEdgeStyle;rounded=0;orthogonalLoop=1;jettySize=auto;html=1;exitX=1;exitY=0.5;exitDx=0;exitDy=0;entryX=0.25;entryY=1;entryDx=0;entryDy=0;strokeColor=#FF0000;" parent="2" source="j3g2-RbLPYTZvtvbNVoc-77" target="j3g2-RbLPYTZvtvbNVoc-94" edge="1">
          <mxGeometry relative="1" as="geometry" />
        </mxCell>
        <mxCell id="j3g2-RbLPYTZvtvbNVoc-77" value="开启了1个accepter服务，1个connector服务和8个worker服务" style="rounded=0;whiteSpace=wrap;html=1;" parent="2" vertex="1">
          <mxGeometry x="800" y="212" width="120" height="60" as="geometry" />
        </mxCell>
        <mxCell id="j3g2-RbLPYTZvtvbNVoc-89" style="edgeStyle=orthogonalEdgeStyle;rounded=0;orthogonalLoop=1;jettySize=auto;html=1;exitX=1;exitY=0.5;exitDx=0;exitDy=0;strokeColor=#FF0000;" parent="2" source="j3g2-RbLPYTZvtvbNVoc-78" target="j3g2-RbLPYTZvtvbNVoc-79" edge="1">
          <mxGeometry relative="1" as="geometry" />
        </mxCell>
        <mxCell id="j3g2-RbLPYTZvtvbNVoc-78" value="&lt;span&gt;建立与功能节点和种子节点的连接，维护节点列表，交换信息&lt;/span&gt;" style="rounded=0;whiteSpace=wrap;html=1;" parent="2" vertex="1">
          <mxGeometry x="640" y="332" width="120" height="60" as="geometry" />
        </mxCell>
        <mxCell id="j3g2-RbLPYTZvtvbNVoc-97" style="edgeStyle=orthogonalEdgeStyle;rounded=0;orthogonalLoop=1;jettySize=auto;html=1;exitX=1;exitY=0.5;exitDx=0;exitDy=0;strokeColor=#FF0000;entryX=0.5;entryY=1;entryDx=0;entryDy=0;" parent="2" source="j3g2-RbLPYTZvtvbNVoc-79" target="j3g2-RbLPYTZvtvbNVoc-94" edge="1">
          <mxGeometry relative="1" as="geometry">
            <mxPoint x="1040" y="310" as="targetPoint" />
          </mxGeometry>
        </mxCell>
        <mxCell id="j3g2-RbLPYTZvtvbNVoc-79" value="监听本地10001端口，accepter ，connecter" style="rounded=0;whiteSpace=wrap;html=1;" parent="2" vertex="1">
          <mxGeometry x="800" y="332" width="120" height="60" as="geometry" />
        </mxCell>
        <mxCell id="j3g2-RbLPYTZvtvbNVoc-90" style="edgeStyle=orthogonalEdgeStyle;rounded=0;orthogonalLoop=1;jettySize=auto;html=1;exitX=1;exitY=0.5;exitDx=0;exitDy=0;strokeColor=#FF0000;" parent="2" source="j3g2-RbLPYTZvtvbNVoc-80" target="j3g2-RbLPYTZvtvbNVoc-82" edge="1">
          <mxGeometry relative="1" as="geometry" />
        </mxCell>
        <mxCell id="pLDWIjj2GUjcDCVIS8U9-29" style="edgeStyle=orthogonalEdgeStyle;rounded=0;orthogonalLoop=1;jettySize=auto;html=1;exitX=0.5;exitY=1;exitDx=0;exitDy=0;strokeColor=#FF0000;" parent="2" source="j3g2-RbLPYTZvtvbNVoc-80" target="j3g2-RbLPYTZvtvbNVoc-81" edge="1">
          <mxGeometry relative="1" as="geometry" />
        </mxCell>
        <mxCell id="j3g2-RbLPYTZvtvbNVoc-80" value="rest api服务" style="rhombus;whiteSpace=wrap;html=1;" parent="2" vertex="1">
          <mxGeometry x="520" y="440" width="80" height="80" as="geometry" />
        </mxCell>
        <mxCell id="j3g2-RbLPYTZvtvbNVoc-92" style="edgeStyle=orthogonalEdgeStyle;rounded=0;orthogonalLoop=1;jettySize=auto;html=1;exitX=1;exitY=0.5;exitDx=0;exitDy=0;entryX=0;entryY=0.5;entryDx=0;entryDy=0;strokeColor=#FF0000;" parent="2" source="j3g2-RbLPYTZvtvbNVoc-81" target="j3g2-RbLPYTZvtvbNVoc-84" edge="1">
          <mxGeometry relative="1" as="geometry" />
        </mxCell>
        <mxCell id="j3g2-RbLPYTZvtvbNVoc-81" value="http服务" style="rhombus;whiteSpace=wrap;html=1;" parent="2" vertex="1">
          <mxGeometry x="520" y="560" width="80" height="80" as="geometry" />
        </mxCell>
        <mxCell id="j3g2-RbLPYTZvtvbNVoc-91" style="edgeStyle=orthogonalEdgeStyle;rounded=0;orthogonalLoop=1;jettySize=auto;html=1;exitX=1;exitY=0.5;exitDx=0;exitDy=0;entryX=0;entryY=0.5;entryDx=0;entryDy=0;strokeColor=#FF0000;" parent="2" source="j3g2-RbLPYTZvtvbNVoc-82" target="j3g2-RbLPYTZvtvbNVoc-83" edge="1">
          <mxGeometry relative="1" as="geometry" />
        </mxCell>
        <mxCell id="j3g2-RbLPYTZvtvbNVoc-82" value="Rest full接口，处理API请求和应答和超时处理" style="rounded=0;whiteSpace=wrap;html=1;" parent="2" vertex="1">
          <mxGeometry x="640" y="450" width="120" height="60" as="geometry" />
        </mxCell>
        <mxCell id="pLDWIjj2GUjcDCVIS8U9-20" style="edgeStyle=orthogonalEdgeStyle;rounded=0;orthogonalLoop=1;jettySize=auto;html=1;exitX=1;exitY=0.5;exitDx=0;exitDy=0;entryX=0.75;entryY=1;entryDx=0;entryDy=0;entryPerimeter=0;strokeColor=#FF0000;" parent="2" source="j3g2-RbLPYTZvtvbNVoc-83" target="j3g2-RbLPYTZvtvbNVoc-94" edge="1">
          <mxGeometry relative="1" as="geometry" />
        </mxCell>
        <mxCell id="j3g2-RbLPYTZvtvbNVoc-83" value="请求主要来自libevent服务，应答主要来自功能节点，30s超时自动回复" style="rounded=0;whiteSpace=wrap;html=1;" parent="2" vertex="1">
          <mxGeometry x="800" y="450" width="120" height="60" as="geometry" />
        </mxCell>
        <mxCell id="j3g2-RbLPYTZvtvbNVoc-93" style="edgeStyle=orthogonalEdgeStyle;rounded=0;orthogonalLoop=1;jettySize=auto;html=1;exitX=1;exitY=0.5;exitDx=0;exitDy=0;strokeColor=#FF0000;" parent="2" source="j3g2-RbLPYTZvtvbNVoc-84" target="j3g2-RbLPYTZvtvbNVoc-85" edge="1">
          <mxGeometry relative="1" as="geometry" />
        </mxCell>
        <mxCell id="j3g2-RbLPYTZvtvbNVoc-84" value="&lt;span&gt;主要使用libevent接受请求，通过publish交给REST API服务处理&lt;/span&gt;" style="rounded=0;whiteSpace=wrap;html=1;" parent="2" vertex="1">
          <mxGeometry x="640" y="570" width="120" height="60" as="geometry" />
        </mxCell>
        <mxCell id="j3g2-RbLPYTZvtvbNVoc-85" value="LibEvent" style="rounded=0;whiteSpace=wrap;html=1;" parent="2" vertex="1">
          <mxGeometry x="800" y="570" width="120" height="60" as="geometry" />
        </mxCell>
        <mxCell id="j3g2-RbLPYTZvtvbNVoc-94" value="boost::asio模块" style="rounded=0;whiteSpace=wrap;html=1;" parent="2" vertex="1">
          <mxGeometry x="950" y="160" width="120" height="60" as="geometry" />
        </mxCell>
        <mxCell id="nzFxxBjij32cpxuQX-4B-20" value="大量使用subscribe-publish模式，用于定时器功能、各个服务之间的通信和recv msg之后的分发处理等。" style="rounded=0;whiteSpace=wrap;html=1;" vertex="1" parent="2">
          <mxGeometry x="600" y="650" width="280" height="60" as="geometry" />
        </mxCell>
        <mxCell id="j3g2-RbLPYTZvtvbNVoc-59" value="" style="endArrow=open;strokeColor=#FF0000;endFill=1;rounded=0;exitX=1;exitY=0.5;exitDx=0;exitDy=0;" parent="1" source="j3g2-RbLPYTZvtvbNVoc-48" edge="1">
          <mxGeometry relative="1" as="geometry">
            <mxPoint x="170.5" y="520" as="sourcePoint" />
            <mxPoint x="215" y="622" as="targetPoint" />
          </mxGeometry>
        </mxCell>
        <mxCell id="pLDWIjj2GUjcDCVIS8U9-24" value="&lt;span&gt;1. 为什么有这么多服务？为什么不合并到一个服务？&lt;br&gt;2. 每个服务都在处理什么事情？有什么区别？&lt;br&gt;3. Asio和libevent应用场景有什么区别？&lt;br&gt;&lt;/span&gt;" style="rounded=0;whiteSpace=wrap;html=1;" parent="1" vertex="1">
          <mxGeometry x="720" y="840" width="400" height="60" as="geometry" />
        </mxCell>
        <mxCell id="pLDWIjj2GUjcDCVIS8U9-25" value="1. 虚拟化libvirt&lt;br&gt;2. Asio和libevent&lt;br&gt;3. Postman" style="rounded=0;whiteSpace=wrap;html=1;" parent="1" vertex="1">
          <mxGeometry x="760" y="920" width="120" height="60" as="geometry" />
        </mxCell>
        <mxCell id="pLDWIjj2GUjcDCVIS8U9-39" style="edgeStyle=orthogonalEdgeStyle;rounded=0;orthogonalLoop=1;jettySize=auto;html=1;exitX=0.5;exitY=1;exitDx=0;exitDy=0;entryX=0.5;entryY=0;entryDx=0;entryDy=0;strokeColor=#FF0000;" parent="1" source="pLDWIjj2GUjcDCVIS8U9-31" target="pLDWIjj2GUjcDCVIS8U9-34" edge="1">
          <mxGeometry relative="1" as="geometry" />
        </mxCell>
        <mxCell id="pLDWIjj2GUjcDCVIS8U9-43" style="edgeStyle=orthogonalEdgeStyle;rounded=0;orthogonalLoop=1;jettySize=auto;html=1;exitX=1;exitY=0.5;exitDx=0;exitDy=0;entryX=0.5;entryY=0;entryDx=0;entryDy=0;strokeColor=#FF0000;" parent="1" source="pLDWIjj2GUjcDCVIS8U9-31" target="pLDWIjj2GUjcDCVIS8U9-35" edge="1">
          <mxGeometry relative="1" as="geometry" />
        </mxCell>
        <mxCell id="pLDWIjj2GUjcDCVIS8U9-31" value="http_server_service&lt;br&gt;libevent回调函数" style="rounded=0;whiteSpace=wrap;html=1;" parent="1" vertex="1">
          <mxGeometry x="40" y="960" width="120" height="60" as="geometry" />
        </mxCell>
        <mxCell id="pLDWIjj2GUjcDCVIS8U9-33" style="edgeStyle=orthogonalEdgeStyle;rounded=0;orthogonalLoop=1;jettySize=auto;html=1;exitX=0.5;exitY=1;exitDx=0;exitDy=0;entryX=0.5;entryY=0;entryDx=0;entryDy=0;strokeColor=#FF0000;" parent="1" source="pLDWIjj2GUjcDCVIS8U9-32" target="pLDWIjj2GUjcDCVIS8U9-31" edge="1">
          <mxGeometry relative="1" as="geometry" />
        </mxCell>
        <mxCell id="pLDWIjj2GUjcDCVIS8U9-32" value="HTTP请求" style="rounded=1;whiteSpace=wrap;html=1;" parent="1" vertex="1">
          <mxGeometry x="55" y="880" width="90" height="40" as="geometry" />
        </mxCell>
        <mxCell id="3PtT3HsG_hEtQFNHx_Ds-42" style="edgeStyle=orthogonalEdgeStyle;rounded=0;orthogonalLoop=1;jettySize=auto;html=1;exitX=0.5;exitY=1;exitDx=0;exitDy=0;strokeColor=#FF0000;" parent="1" source="pLDWIjj2GUjcDCVIS8U9-34" target="3PtT3HsG_hEtQFNHx_Ds-20" edge="1">
          <mxGeometry relative="1" as="geometry" />
        </mxCell>
        <mxCell id="pLDWIjj2GUjcDCVIS8U9-34" value="rest_api_service&lt;br&gt;on_http_request_event" style="rounded=0;whiteSpace=wrap;html=1;" parent="1" vertex="1">
          <mxGeometry x="40" y="1060" width="120" height="60" as="geometry" />
        </mxCell>
        <mxCell id="pLDWIjj2GUjcDCVIS8U9-35" value="http_request" style="swimlane;fontStyle=1;align=center;verticalAlign=top;childLayout=stackLayout;horizontal=1;startSize=26;horizontalStack=0;resizeParent=1;resizeParentMax=0;resizeLast=0;collapsible=1;marginBottom=0;" parent="1" vertex="1">
          <mxGeometry x="200" y="1000" width="160" height="86" as="geometry" />
        </mxCell>
        <mxCell id="pLDWIjj2GUjcDCVIS8U9-36" value="m_req: evhttp_request" style="text;strokeColor=none;fillColor=none;align=left;verticalAlign=top;spacingLeft=4;spacingRight=4;overflow=hidden;rotatable=0;points=[[0,0.5],[1,0.5]];portConstraint=eastwest;" parent="pLDWIjj2GUjcDCVIS8U9-35" vertex="1">
          <mxGeometry y="26" width="160" height="26" as="geometry" />
        </mxCell>
        <mxCell id="pLDWIjj2GUjcDCVIS8U9-37" value="" style="line;strokeWidth=1;fillColor=none;align=left;verticalAlign=middle;spacingTop=-1;spacingLeft=3;spacingRight=3;rotatable=0;labelPosition=right;points=[];portConstraint=eastwest;" parent="pLDWIjj2GUjcDCVIS8U9-35" vertex="1">
          <mxGeometry y="52" width="160" height="8" as="geometry" />
        </mxCell>
        <mxCell id="pLDWIjj2GUjcDCVIS8U9-38" value="m_event_base: event_base" style="text;strokeColor=none;fillColor=none;align=left;verticalAlign=top;spacingLeft=4;spacingRight=4;overflow=hidden;rotatable=0;points=[[0,0.5],[1,0.5]];portConstraint=eastwest;" parent="pLDWIjj2GUjcDCVIS8U9-35" vertex="1">
          <mxGeometry y="60" width="160" height="26" as="geometry" />
        </mxCell>
        <mxCell id="pLDWIjj2GUjcDCVIS8U9-44" style="edgeStyle=orthogonalEdgeStyle;rounded=0;orthogonalLoop=1;jettySize=auto;html=1;exitX=0;exitY=0.5;exitDx=0;exitDy=0;strokeColor=#FF0000;" parent="1" source="pLDWIjj2GUjcDCVIS8U9-38" target="pLDWIjj2GUjcDCVIS8U9-34" edge="1">
          <mxGeometry relative="1" as="geometry" />
        </mxCell>
        <mxCell id="3PtT3HsG_hEtQFNHx_Ds-43" style="edgeStyle=orthogonalEdgeStyle;rounded=0;orthogonalLoop=1;jettySize=auto;html=1;exitX=1;exitY=0.5;exitDx=0;exitDy=0;strokeColor=#FF0000;" parent="1" source="3PtT3HsG_hEtQFNHx_Ds-20" target="3PtT3HsG_hEtQFNHx_Ds-35" edge="1">
          <mxGeometry relative="1" as="geometry" />
        </mxCell>
        <mxCell id="3PtT3HsG_hEtQFNHx_Ds-20" value="rest_api_service根据不同的请求调用不同的处理函数" style="rounded=0;whiteSpace=wrap;html=1;" parent="1" vertex="1">
          <mxGeometry x="40" y="1160" width="120" height="60" as="geometry" />
        </mxCell>
        <mxCell id="3PtT3HsG_hEtQFNHx_Ds-35" value="api/v1-rest_api_service" style="swimlane;fontStyle=0;childLayout=stackLayout;horizontal=1;startSize=26;horizontalStack=0;resizeParent=1;resizeParentMax=0;resizeLast=0;collapsible=1;marginBottom=0;" parent="1" vertex="1">
          <mxGeometry x="200" y="1120" width="140" height="104" as="geometry" />
        </mxCell>
        <mxCell id="3PtT3HsG_hEtQFNHx_Ds-36" value="/task--------rest_task" style="text;strokeColor=none;fillColor=none;align=left;verticalAlign=top;spacingLeft=4;spacingRight=4;overflow=hidden;rotatable=0;points=[[0,0.5],[1,0.5]];portConstraint=eastwest;" parent="3PtT3HsG_hEtQFNHx_Ds-35" vertex="1">
          <mxGeometry y="26" width="140" height="26" as="geometry" />
        </mxCell>
        <mxCell id="3PtT3HsG_hEtQFNHx_Ds-37" value="mining_nodes--test_mining_node" style="text;strokeColor=none;fillColor=none;align=left;verticalAlign=top;spacingLeft=4;spacingRight=4;overflow=hidden;rotatable=0;points=[[0,0.5],[1,0.5]];portConstraint=eastwest;" parent="3PtT3HsG_hEtQFNHx_Ds-35" vertex="1">
          <mxGeometry y="52" width="140" height="26" as="geometry" />
        </mxCell>
        <mxCell id="3PtT3HsG_hEtQFNHx_Ds-38" value="peers-------test_peers" style="text;strokeColor=none;fillColor=none;align=left;verticalAlign=top;spacingLeft=4;spacingRight=4;overflow=hidden;rotatable=0;points=[[0,0.5],[1,0.5]];portConstraint=eastwest;" parent="3PtT3HsG_hEtQFNHx_Ds-35" vertex="1">
          <mxGeometry y="78" width="140" height="26" as="geometry" />
        </mxCell>
        <mxCell id="3PtT3HsG_hEtQFNHx_Ds-44" value="sign和nonce可以使用sign_tool工具来生成" style="rounded=0;whiteSpace=wrap;html=1;" parent="1" vertex="1">
          <mxGeometry x="920" y="920" width="120" height="60" as="geometry" />
        </mxCell>
        <mxCell id="MC3wD90I_ucXQb8cFN5R-20" value="&lt;p style=&quot;margin: 0px ; margin-top: 4px ; text-align: center ; text-decoration: underline&quot;&gt;&lt;b&gt;network::message&lt;/b&gt;&lt;/p&gt;&lt;hr&gt;&lt;p style=&quot;margin: 0px ; margin-left: 8px&quot;&gt;inner_header header&lt;br&gt;shared_ptr&amp;lt;msg_base&amp;gt; content&lt;br&gt;&lt;/p&gt;" style="verticalAlign=top;align=left;overflow=fill;fontSize=12;fontFamily=Helvetica;html=1;" parent="1" vertex="1">
          <mxGeometry x="40" y="1317" width="180" height="70" as="geometry" />
        </mxCell>
        <mxCell id="MC3wD90I_ucXQb8cFN5R-21" value="&lt;p style=&quot;margin: 0px ; margin-top: 4px ; text-align: center ; text-decoration: underline&quot;&gt;&lt;b&gt;network::inner_header&lt;/b&gt;&lt;/p&gt;&lt;hr&gt;&lt;p style=&quot;margin: 0px ; margin-left: 8px&quot;&gt;string name&lt;br&gt;uint32_t msg_priority&lt;br&gt;socket_id src_sid&lt;/p&gt;&lt;p style=&quot;margin: 0px ; margin-left: 8px&quot;&gt;socket_id dst_sid&lt;/p&gt;" style="verticalAlign=top;align=left;overflow=fill;fontSize=12;fontFamily=Helvetica;html=1;" parent="1" vertex="1">
          <mxGeometry x="260" y="1307" width="160" height="100" as="geometry" />
        </mxCell>
        <mxCell id="MC3wD90I_ucXQb8cFN5R-24" value="base" style="swimlane;fontStyle=0;childLayout=stackLayout;horizontal=1;startSize=26;fillColor=none;horizontalStack=0;resizeParent=1;resizeParentMax=0;resizeLast=0;collapsible=1;marginBottom=0;" parent="1" vertex="1">
          <mxGeometry x="460" y="1300" width="140" height="104" as="geometry" />
        </mxCell>
        <mxCell id="MC3wD90I_ucXQb8cFN5R-25" value="uint32_t validate()" style="text;strokeColor=none;fillColor=none;align=left;verticalAlign=top;spacingLeft=4;spacingRight=4;overflow=hidden;rotatable=0;points=[[0,0.5],[1,0.5]];portConstraint=eastwest;" parent="MC3wD90I_ucXQb8cFN5R-24" vertex="1">
          <mxGeometry y="26" width="140" height="26" as="geometry" />
        </mxCell>
        <mxCell id="MC3wD90I_ucXQb8cFN5R-26" value="uint32_t read()" style="text;strokeColor=none;fillColor=none;align=left;verticalAlign=top;spacingLeft=4;spacingRight=4;overflow=hidden;rotatable=0;points=[[0,0.5],[1,0.5]];portConstraint=eastwest;" parent="MC3wD90I_ucXQb8cFN5R-24" vertex="1">
          <mxGeometry y="52" width="140" height="26" as="geometry" />
        </mxCell>
        <mxCell id="MC3wD90I_ucXQb8cFN5R-27" value="uint32_t write()" style="text;strokeColor=none;fillColor=none;align=left;verticalAlign=top;spacingLeft=4;spacingRight=4;overflow=hidden;rotatable=0;points=[[0,0.5],[1,0.5]];portConstraint=eastwest;" parent="MC3wD90I_ucXQb8cFN5R-24" vertex="1">
          <mxGeometry y="78" width="140" height="26" as="geometry" />
        </mxCell>
        <mxCell id="a1sIMJIRtUh-UCdF-Sr4-27" value="功能节点--query node info" style="swimlane;" parent="1" vertex="1">
          <mxGeometry x="1880" y="40" width="360" height="600" as="geometry" />
        </mxCell>
        <mxCell id="a1sIMJIRtUh-UCdF-Sr4-49" style="edgeStyle=orthogonalEdgeStyle;rounded=0;orthogonalLoop=1;jettySize=auto;html=1;exitX=0.5;exitY=1;exitDx=0;exitDy=0;entryX=0.5;entryY=0;entryDx=0;entryDy=0;strokeColor=#FF0000;" parent="a1sIMJIRtUh-UCdF-Sr4-27" source="a1sIMJIRtUh-UCdF-Sr4-20" target="a1sIMJIRtUh-UCdF-Sr4-22" edge="1">
          <mxGeometry relative="1" as="geometry" />
        </mxCell>
        <mxCell id="a1sIMJIRtUh-UCdF-Sr4-20" value="matrix_socket_channel_handler::on_read&lt;br&gt;recv msg:&amp;nbsp;node_query_node_info_req" style="rounded=0;whiteSpace=wrap;html=1;" parent="a1sIMJIRtUh-UCdF-Sr4-27" vertex="1">
          <mxGeometry x="20" y="40" width="320" height="60" as="geometry" />
        </mxCell>
        <mxCell id="a1sIMJIRtUh-UCdF-Sr4-51" style="edgeStyle=orthogonalEdgeStyle;rounded=0;orthogonalLoop=1;jettySize=auto;html=1;exitX=0.5;exitY=1;exitDx=0;exitDy=0;entryX=0.5;entryY=0;entryDx=0;entryDy=0;strokeColor=#FF0000;" parent="a1sIMJIRtUh-UCdF-Sr4-27" source="a1sIMJIRtUh-UCdF-Sr4-21" target="a1sIMJIRtUh-UCdF-Sr4-23" edge="1">
          <mxGeometry relative="1" as="geometry" />
        </mxCell>
        <mxCell id="a1sIMJIRtUh-UCdF-Sr4-21" value="node_request_service::on_node_query_node_info_req" style="rounded=0;whiteSpace=wrap;html=1;" parent="a1sIMJIRtUh-UCdF-Sr4-27" vertex="1">
          <mxGeometry x="20" y="200" width="320" height="60" as="geometry" />
        </mxCell>
        <mxCell id="a1sIMJIRtUh-UCdF-Sr4-50" style="edgeStyle=orthogonalEdgeStyle;rounded=0;orthogonalLoop=1;jettySize=auto;html=1;exitX=0.5;exitY=1;exitDx=0;exitDy=0;entryX=0.5;entryY=0;entryDx=0;entryDy=0;strokeColor=#FF0000;" parent="a1sIMJIRtUh-UCdF-Sr4-27" source="a1sIMJIRtUh-UCdF-Sr4-22" target="a1sIMJIRtUh-UCdF-Sr4-21" edge="1">
          <mxGeometry relative="1" as="geometry" />
        </mxCell>
        <mxCell id="a1sIMJIRtUh-UCdF-Sr4-22" value="topic_manager::instance().publish" style="rounded=0;whiteSpace=wrap;html=1;" parent="a1sIMJIRtUh-UCdF-Sr4-27" vertex="1">
          <mxGeometry x="20" y="120" width="320" height="60" as="geometry" />
        </mxCell>
        <mxCell id="a1sIMJIRtUh-UCdF-Sr4-52" style="edgeStyle=orthogonalEdgeStyle;rounded=0;orthogonalLoop=1;jettySize=auto;html=1;exitX=0.5;exitY=1;exitDx=0;exitDy=0;entryX=0.5;entryY=0;entryDx=0;entryDy=0;strokeColor=#FF0000;" parent="a1sIMJIRtUh-UCdF-Sr4-27" source="a1sIMJIRtUh-UCdF-Sr4-23" target="a1sIMJIRtUh-UCdF-Sr4-24" edge="1">
          <mxGeometry relative="1" as="geometry" />
        </mxCell>
        <mxCell id="a1sIMJIRtUh-UCdF-Sr4-23" value="node_request_service::query_node_info" style="rounded=0;whiteSpace=wrap;html=1;" parent="a1sIMJIRtUh-UCdF-Sr4-27" vertex="1">
          <mxGeometry x="20" y="280" width="320" height="60" as="geometry" />
        </mxCell>
        <mxCell id="a1sIMJIRtUh-UCdF-Sr4-53" style="edgeStyle=orthogonalEdgeStyle;rounded=0;orthogonalLoop=1;jettySize=auto;html=1;exitX=0.5;exitY=1;exitDx=0;exitDy=0;entryX=0.5;entryY=0;entryDx=0;entryDy=0;strokeColor=#FF0000;" parent="a1sIMJIRtUh-UCdF-Sr4-27" source="a1sIMJIRtUh-UCdF-Sr4-24" target="a1sIMJIRtUh-UCdF-Sr4-54" edge="1">
          <mxGeometry relative="1" as="geometry" />
        </mxCell>
        <mxCell id="a1sIMJIRtUh-UCdF-Sr4-24" value="connection_manager::send_resp_message&lt;br&gt;node_query_node_info_rsp" style="rounded=0;whiteSpace=wrap;html=1;" parent="a1sIMJIRtUh-UCdF-Sr4-27" vertex="1">
          <mxGeometry x="20" y="360" width="320" height="60" as="geometry" />
        </mxCell>
        <mxCell id="a1sIMJIRtUh-UCdF-Sr4-48" value="tcp_socket_channel::write&lt;br&gt;node_query_node_info_rsp" style="rounded=0;whiteSpace=wrap;html=1;" parent="a1sIMJIRtUh-UCdF-Sr4-27" vertex="1">
          <mxGeometry x="20" y="520" width="320" height="60" as="geometry" />
        </mxCell>
        <mxCell id="a1sIMJIRtUh-UCdF-Sr4-58" style="edgeStyle=orthogonalEdgeStyle;rounded=0;orthogonalLoop=1;jettySize=auto;html=1;exitX=0.5;exitY=1;exitDx=0;exitDy=0;entryX=0.5;entryY=0;entryDx=0;entryDy=0;strokeColor=#FF0000;" parent="a1sIMJIRtUh-UCdF-Sr4-27" source="a1sIMJIRtUh-UCdF-Sr4-54" target="a1sIMJIRtUh-UCdF-Sr4-48" edge="1">
          <mxGeometry relative="1" as="geometry" />
        </mxCell>
        <mxCell id="a1sIMJIRtUh-UCdF-Sr4-54" value="connection_manager::find_fast_path&lt;br&gt;根据path找到channel" style="rounded=0;whiteSpace=wrap;html=1;" parent="a1sIMJIRtUh-UCdF-Sr4-27" vertex="1">
          <mxGeometry x="20" y="440" width="320" height="60" as="geometry" />
        </mxCell>
        <mxCell id="a1sIMJIRtUh-UCdF-Sr4-30" value="客户端节点-query node info" style="swimlane;" parent="1" vertex="1">
          <mxGeometry x="1200" y="40" width="640" height="600" as="geometry" />
        </mxCell>
        <mxCell id="a1sIMJIRtUh-UCdF-Sr4-38" style="edgeStyle=orthogonalEdgeStyle;rounded=0;orthogonalLoop=1;jettySize=auto;html=1;exitX=0.5;exitY=1;exitDx=0;exitDy=0;entryX=0.5;entryY=0;entryDx=0;entryDy=0;strokeColor=#FF0000;" parent="a1sIMJIRtUh-UCdF-Sr4-30" source="a1sIMJIRtUh-UCdF-Sr4-31" target="a1sIMJIRtUh-UCdF-Sr4-33" edge="1">
          <mxGeometry relative="1" as="geometry" />
        </mxCell>
        <mxCell id="a1sIMJIRtUh-UCdF-Sr4-31" value="http_server_service::on_http_request_event&lt;br&gt;recv POST request for mining_nodes" style="rounded=0;whiteSpace=wrap;html=1;" parent="a1sIMJIRtUh-UCdF-Sr4-30" vertex="1">
          <mxGeometry x="20" y="40" width="280" height="60" as="geometry" />
        </mxCell>
        <mxCell id="a1sIMJIRtUh-UCdF-Sr4-39" style="edgeStyle=orthogonalEdgeStyle;rounded=0;orthogonalLoop=1;jettySize=auto;html=1;exitX=0.5;exitY=1;exitDx=0;exitDy=0;entryX=0.5;entryY=0;entryDx=0;entryDy=0;strokeColor=#FF0000;" parent="a1sIMJIRtUh-UCdF-Sr4-30" source="a1sIMJIRtUh-UCdF-Sr4-33" target="a1sIMJIRtUh-UCdF-Sr4-34" edge="1">
          <mxGeometry relative="1" as="geometry" />
        </mxCell>
        <mxCell id="a1sIMJIRtUh-UCdF-Sr4-33" value="rest_api_service::rest_list_mining_nodes" style="rounded=0;whiteSpace=wrap;html=1;" parent="a1sIMJIRtUh-UCdF-Sr4-30" vertex="1">
          <mxGeometry x="20" y="120" width="280" height="60" as="geometry" />
        </mxCell>
        <mxCell id="a1sIMJIRtUh-UCdF-Sr4-57" style="edgeStyle=orthogonalEdgeStyle;rounded=0;orthogonalLoop=1;jettySize=auto;html=1;exitX=1;exitY=0.5;exitDx=0;exitDy=0;entryX=0;entryY=0.5;entryDx=0;entryDy=0;strokeColor=#FF0000;" parent="a1sIMJIRtUh-UCdF-Sr4-30" source="a1sIMJIRtUh-UCdF-Sr4-34" target="a1sIMJIRtUh-UCdF-Sr4-36" edge="1">
          <mxGeometry relative="1" as="geometry" />
        </mxCell>
        <mxCell id="a1sIMJIRtUh-UCdF-Sr4-34" value="connection_manager::broadcast_message&lt;br&gt;broadcast msg:&amp;nbsp;node_query_node_info_req" style="rounded=0;whiteSpace=wrap;html=1;" parent="a1sIMJIRtUh-UCdF-Sr4-30" vertex="1">
          <mxGeometry x="20" y="199" width="280" height="60" as="geometry" />
        </mxCell>
        <mxCell id="a1sIMJIRtUh-UCdF-Sr4-42" style="edgeStyle=orthogonalEdgeStyle;rounded=0;orthogonalLoop=1;jettySize=auto;html=1;exitX=0.5;exitY=1;exitDx=0;exitDy=0;entryX=0.5;entryY=0;entryDx=0;entryDy=0;strokeColor=#FF0000;" parent="a1sIMJIRtUh-UCdF-Sr4-30" source="a1sIMJIRtUh-UCdF-Sr4-35" target="a1sIMJIRtUh-UCdF-Sr4-41" edge="1">
          <mxGeometry relative="1" as="geometry" />
        </mxCell>
        <mxCell id="a1sIMJIRtUh-UCdF-Sr4-35" value="matrix_socket_channel_handler::on_read&lt;br&gt;recv mes: node_query_node_info_rsp" style="rounded=0;whiteSpace=wrap;html=1;" parent="a1sIMJIRtUh-UCdF-Sr4-30" vertex="1">
          <mxGeometry x="20" y="280" width="280" height="60" as="geometry" />
        </mxCell>
        <mxCell id="a1sIMJIRtUh-UCdF-Sr4-36" value="遍历所有channel" style="swimlane;" parent="a1sIMJIRtUh-UCdF-Sr4-30" vertex="1">
          <mxGeometry x="340" y="59" width="280" height="200" as="geometry" />
        </mxCell>
        <mxCell id="a1sIMJIRtUh-UCdF-Sr4-28" value="matrix_socket_channel_handler::on_write" style="rounded=0;whiteSpace=wrap;html=1;" parent="a1sIMJIRtUh-UCdF-Sr4-36" vertex="1">
          <mxGeometry x="20" y="38" width="240" height="60" as="geometry" />
        </mxCell>
        <mxCell id="a1sIMJIRtUh-UCdF-Sr4-29" value="tcp_socket_channel::write" style="rounded=0;whiteSpace=wrap;html=1;" parent="a1sIMJIRtUh-UCdF-Sr4-36" vertex="1">
          <mxGeometry x="20" y="110" width="240" height="60" as="geometry" />
        </mxCell>
        <mxCell id="a1sIMJIRtUh-UCdF-Sr4-44" style="edgeStyle=orthogonalEdgeStyle;rounded=0;orthogonalLoop=1;jettySize=auto;html=1;exitX=0.5;exitY=1;exitDx=0;exitDy=0;entryX=0.5;entryY=0;entryDx=0;entryDy=0;strokeColor=#FF0000;" parent="a1sIMJIRtUh-UCdF-Sr4-30" source="a1sIMJIRtUh-UCdF-Sr4-41" target="a1sIMJIRtUh-UCdF-Sr4-43" edge="1">
          <mxGeometry relative="1" as="geometry" />
        </mxCell>
        <mxCell id="a1sIMJIRtUh-UCdF-Sr4-41" value="rest_api_service::on_call_rsp_handler" style="rounded=0;whiteSpace=wrap;html=1;" parent="a1sIMJIRtUh-UCdF-Sr4-30" vertex="1">
          <mxGeometry x="20" y="360" width="280" height="60" as="geometry" />
        </mxCell>
        <mxCell id="a1sIMJIRtUh-UCdF-Sr4-46" style="edgeStyle=orthogonalEdgeStyle;rounded=0;orthogonalLoop=1;jettySize=auto;html=1;exitX=0.5;exitY=1;exitDx=0;exitDy=0;entryX=0.5;entryY=0;entryDx=0;entryDy=0;strokeColor=#FF0000;" parent="a1sIMJIRtUh-UCdF-Sr4-30" source="a1sIMJIRtUh-UCdF-Sr4-43" target="a1sIMJIRtUh-UCdF-Sr4-45" edge="1">
          <mxGeometry relative="1" as="geometry" />
        </mxCell>
        <mxCell id="a1sIMJIRtUh-UCdF-Sr4-43" value="rest_api_service::on_node_query_node_info_rsp" style="rounded=0;whiteSpace=wrap;html=1;" parent="a1sIMJIRtUh-UCdF-Sr4-30" vertex="1">
          <mxGeometry x="20" y="440" width="280" height="60" as="geometry" />
        </mxCell>
        <mxCell id="a1sIMJIRtUh-UCdF-Sr4-45" value="http_request::reply_comm_rest_succ2&lt;br&gt;返回给用户端" style="rounded=0;whiteSpace=wrap;html=1;" parent="a1sIMJIRtUh-UCdF-Sr4-30" vertex="1">
          <mxGeometry x="20" y="520" width="280" height="60" as="geometry" />
        </mxCell>
        <mxCell id="a1sIMJIRtUh-UCdF-Sr4-55" style="edgeStyle=orthogonalEdgeStyle;rounded=0;orthogonalLoop=1;jettySize=auto;html=1;exitX=1;exitY=0.5;exitDx=0;exitDy=0;entryX=0;entryY=0.5;entryDx=0;entryDy=0;strokeColor=#FF0000;" parent="1" source="a1sIMJIRtUh-UCdF-Sr4-36" target="a1sIMJIRtUh-UCdF-Sr4-20" edge="1">
          <mxGeometry relative="1" as="geometry" />
        </mxCell>
        <mxCell id="a1sIMJIRtUh-UCdF-Sr4-56" style="edgeStyle=orthogonalEdgeStyle;rounded=0;orthogonalLoop=1;jettySize=auto;html=1;exitX=0;exitY=0.5;exitDx=0;exitDy=0;entryX=1;entryY=0.5;entryDx=0;entryDy=0;strokeColor=#FF0000;" parent="1" source="a1sIMJIRtUh-UCdF-Sr4-48" target="a1sIMJIRtUh-UCdF-Sr4-35" edge="1">
          <mxGeometry relative="1" as="geometry" />
        </mxCell>
        <mxCell id="a1sIMJIRtUh-UCdF-Sr4-59" value="&lt;p style=&quot;margin: 0px ; margin-top: 6px ; text-align: center&quot;&gt;&lt;b&gt;node_info_req_data&lt;/b&gt;&lt;/p&gt;&lt;hr&gt;&lt;p style=&quot;margin: 0px ; margin-left: 8px&quot;&gt;vector&amp;lt;string&amp;gt; peer_node_list;&lt;br&gt;string additional;&lt;/p&gt;&lt;p style=&quot;margin: 0px ; margin-left: 8px&quot;&gt;string wallet;&lt;/p&gt;&lt;p style=&quot;margin: 0px ; margin-left: 8px&quot;&gt;string session_id;&lt;/p&gt;&lt;p style=&quot;margin: 0px ; margin-left: 8px&quot;&gt;string session_id_sign;&lt;/p&gt;" style="align=left;overflow=fill;html=1;dropTarget=0;" parent="1" vertex="1">
          <mxGeometry x="680" y="1080" width="180" height="120" as="geometry" />
        </mxCell>
        <mxCell id="a1sIMJIRtUh-UCdF-Sr4-60" value="" style="shape=component;jettyWidth=8;jettyHeight=4;" parent="a1sIMJIRtUh-UCdF-Sr4-59" vertex="1">
          <mxGeometry x="1" width="20" height="20" relative="1" as="geometry">
            <mxPoint x="-24" y="4" as="offset" />
          </mxGeometry>
        </mxCell>
        <mxCell id="a1sIMJIRtUh-UCdF-Sr4-61" value="&lt;p style=&quot;margin: 0px ; margin-top: 6px ; text-align: center&quot;&gt;&lt;b&gt;node_info_req_body&lt;/b&gt;&lt;/p&gt;&lt;hr&gt;&lt;p style=&quot;margin: 0px ; margin-left: 8px&quot;&gt;string data;&lt;br&gt;&lt;/p&gt;" style="align=left;overflow=fill;html=1;dropTarget=0;" parent="1" vertex="1">
          <mxGeometry x="880" y="1080" width="180" height="90" as="geometry" />
        </mxCell>
        <mxCell id="a1sIMJIRtUh-UCdF-Sr4-62" value="" style="shape=component;jettyWidth=8;jettyHeight=4;" parent="a1sIMJIRtUh-UCdF-Sr4-61" vertex="1">
          <mxGeometry x="1" width="20" height="20" relative="1" as="geometry">
            <mxPoint x="-24" y="4" as="offset" />
          </mxGeometry>
        </mxCell>
        <mxCell id="a1sIMJIRtUh-UCdF-Sr4-63" value="&lt;p style=&quot;margin: 0px ; margin-top: 6px ; text-align: center&quot;&gt;&lt;b&gt;node_info_req&lt;/b&gt;&lt;/p&gt;&lt;hr&gt;&lt;p style=&quot;margin: 0px ; margin-left: 8px&quot;&gt;node_info_req_body body;&lt;br&gt;node_info_req__isset isset;&lt;/p&gt;" style="align=left;overflow=fill;html=1;dropTarget=0;" parent="1" vertex="1">
          <mxGeometry x="680" y="1239" width="180" height="90" as="geometry" />
        </mxCell>
        <mxCell id="a1sIMJIRtUh-UCdF-Sr4-64" value="" style="shape=component;jettyWidth=8;jettyHeight=4;" parent="a1sIMJIRtUh-UCdF-Sr4-63" vertex="1">
          <mxGeometry x="1" width="20" height="20" relative="1" as="geometry">
            <mxPoint x="-24" y="4" as="offset" />
          </mxGeometry>
        </mxCell>
      </root>
    </mxGraphModel>
  </diagram>
</mxfile>
